<svg xmlns="http://www.w3.org/2000/svg" viewBox="0 0 229.92 250" fill="#FFC033">
    <path
      d="M67.85,216.79c-1.31-3.68-5.16-5.76-9-5.07-20.16,3.62-41.31-5.46-52.14-24.22-10.86-18.81-8.11-41.75,5.2-57.4,2.49-2.93,2.49-7.28,0-10.21C-1.4,104.25-4.15,81.31,6.71,62.5c10.83-18.76,31.98-27.84,52.14-24.22,3.85.69,7.69-1.39,9-5.07C74.75,13.85,93.24,0,114.96,0s40.21,13.85,47.11,33.21c1.31,3.68,5.16,5.76,9,5.07,20.16-3.62,41.31,5.46,52.14,24.22,10.86,18.81,8.11,41.75-5.2,57.4-2.49,2.93-2.49,7.28,0,10.21,13.31,15.65,16.07,38.59,5.2,57.4-10.83,18.76-31.98,27.84-52.14,24.22-3.85-.69-7.69,1.39-9,5.07-6.9,19.35-25.38,33.21-47.11,33.21s-40.21-13.85-47.11-33.21Z"
    />
  </svg>